# xmcd
#
# Track frame offsets:
#	150
#	13683
#	29342
#	41846
#	56972
#	69124
#	81281
#	98448
#	114367
#	130514
#	143347
#
# Disc length: 2104 seconds
#
# Revision: 0
# Processed by: cddbd v1.4PL0 Copyright (c) Steve Scherf et al.
# Submitted via: dBpowerAMP V4.0
#
DISCID=8308360b
DTITLE=Jose Julian - El Milagro De Tus Ojos
DYEAR=2002
DGENRE=Mexican
TTITLE0=Soy Como Soy
TTITLE1=Dejemoslo Asi
TTITLE2=Que Bonito
TTITLE3=Enamorado De Ti
TTITLE4=El Rey Del Vacilon
TTITLE5=Dejame Solo
TTITLE6=Volare
TTITLE7=Ya No Te Acuerdas
TTITLE8=Nadie Se Muere De Amor
TTITLE9=El Mitorero
TTITLE10=El Milagro De Tus Ojos
EXTD=Genre: mexican
EXTT0=
EXTT1=
EXTT2=
EXTT3=
EXTT4=
EXTT5=
EXTT6=
EXTT7=
EXTT8=
EXTT9=
EXTT10=
PLAYORDER=
